<svg width="35" height="30" viewBox="0 0 35 30" fill="none" xmlns="http://www.w3.org/2000/svg">
<path d="M2.59146 22.9068C2.53593 24.2116 2.14836 25.9846 2.70348 27.1989C2.77989 27.4664 2.93393 27.7124 3.3638 27.7295C3.75347 27.7451 3.57302 27.9212 3.96517 27.9418C4.37984 27.9636 5.25234 28.2484 5.67495 28.2602C6.56466 28.2849 7.44034 28.2427 8.32805 28.3427C8.88505 28.4055 9.69301 28.4575 10.2383 28.3191C10.7328 28.1936 11.3102 27.878 11.7476 27.6234C12.2676 27.3208 12.6319 26.7603 13.1862 26.5386C13.8119 26.2883 14.4961 25.667 14.8606 25.1C15.0153 24.8594 15.53 23.7306 15.8039 23.8089C15.9385 23.8473 16.0649 24.5746 16.14 24.705C16.459 25.2591 16.7581 25.8828 17.1422 26.3912C17.8715 27.3563 18.4678 27.3596 19.477 27.7885C20.4314 28.1942 21.4754 28.154 22.4956 28.154C23.1061 28.154 23.6764 27.9418 24.2585 27.9418C25.3097 27.9418 26.2509 27.2853 27.2771 27.0987C27.7954 27.0045 27.8549 26.5808 27.8549 26.0905C27.8549 23.368 27.6344 20.6771 27.4068 17.9661C27.254 16.1465 27.243 14.3236 26.9587 12.5184C26.7964 11.4878 26.3476 10.6187 26.0744 9.62949C25.8768 8.91408 25.6156 8.26921 25.2018 7.64851C23.8792 5.66457 21.9079 4.04067 19.7069 3.13234C18.0602 2.45276 16.3884 2.25977 14.6365 2.25977C12.8576 2.25977 11.2472 2.6862 9.55438 3.22078C8.81054 3.45568 8.28889 3.86555 7.69925 4.32884L7.69131 4.33508C7.01862 4.86362 6.80172 5.58935 6.47678 6.32786C5.64336 8.22198 5.35279 10.3386 4.66088 12.2885C4.21938 13.5327 4.10331 14.9499 3.96517 16.2623C3.86449 17.2187 3.2341 18.0968 3.2341 19.0451C3.2341 20.3447 2.64774 21.5842 2.59146 22.9068Z" stroke="#77E2F4" stroke-width="3" stroke-linecap="round"/>
<path d="M8.47244 13.5132C8.32581 13.4949 8.53131 12.8502 8.54445 12.756C8.60017 12.3567 8.6544 11.986 8.84691 11.6223C9.01 11.3143 9.18772 10.9949 9.36952 10.6985C9.61567 10.2972 9.96812 9.98236 10.2831 9.63679C10.5197 9.37716 10.8134 9.20926 11.0855 8.99484C11.4545 8.70413 11.9612 8.46103 12.3982 8.29527C12.9665 8.07973 13.511 8.10408 14.1019 8.06072C14.5794 8.02566 15.0589 8.02358 15.538 8.03191C16.0234 8.04035 16.5321 8.1809 17.0092 8.26853C17.5236 8.36302 18.0112 8.47338 18.5112 8.643C18.9528 8.79282 19.4087 8.91577 19.7971 9.18825C20.0202 9.34475 20.2451 9.5153 20.4309 9.71498C20.597 9.89356 20.8109 10.0498 20.9452 10.2541C21.4283 10.9888 21.8869 11.9017 21.9493 12.791C21.9927 13.4088 22.0688 13.9976 21.5975 14.4411C21.3585 14.6661 20.8929 14.6457 20.5913 14.6695C20.1307 14.7059 19.6707 14.6983 19.2087 14.6983C18.9856 14.6983 18.7561 14.7128 18.5338 14.6901C18.3096 14.6672 18.1088 14.5872 17.8795 14.5872C17.3008 14.5872 16.7245 14.5815 16.1471 14.6243C14.6066 14.7384 13.0589 14.6983 11.5135 14.6983C10.555 14.6983 9.60213 14.6613 8.64116 14.6613C8.52857 14.6613 8.44268 14.5942 8.32429 14.5872C8.20097 14.58 8.3377 14.3026 8.36133 14.2539C8.45308 14.065 8.39837 13.7574 8.39837 13.5502" stroke="#77E2F4" stroke-width="3" stroke-linecap="round"/>
<path d="M23.8926 5.47779C23.906 5.35695 24.4721 5.19536 24.577 5.17003C24.8695 5.09943 25.2256 5.14706 25.5233 5.14706C26.0418 5.14706 26.5646 5.0918 27.0483 5.31242C27.412 5.47833 27.7873 5.60364 28.1507 5.76718C28.4735 5.91244 28.7731 6.09533 29.0924 6.2449C29.6919 6.52575 30.1998 6.82451 30.6909 7.27384C31.1857 7.72653 31.6858 8.22148 32.0162 8.81037C32.1742 9.09211 32.3295 9.38037 32.3676 9.7038C32.4565 10.4595 32.5832 11.2094 32.6799 11.9638C32.7907 12.8278 32.9148 13.7264 32.8545 14.6005C32.7768 15.7265 32.7252 16.883 32.1999 17.9009C31.7783 18.7177 31.373 19.5344 30.5256 19.9703C30.3285 20.0716 30.1185 20.278 29.8871 20.278C29.7033 20.278 29.5176 20.3194 29.329 20.3194C28.8811 20.3194 28.4332 20.3194 27.9854 20.3194" stroke="#77E2F4" stroke-width="3" stroke-linecap="round"/>
</svg>
