<svg width="2155" height="167" viewBox="1 1 2155 167" fill="none" xmlns="http://www.w3.org/2000/svg">
<path d="M0.871094 0.829209H56.0998V56.0579H0.871094V0.829209Z" fill="#C8B6FF"/>
<path d="M0.871094 111.286H56.0998V166.515H0.871094V111.286Z" fill="#C8B6FF"/>
<path d="M111.331 0.829139H166.56V56.0579H111.331V0.829139Z" fill="#C8B6FF"/>
<path d="M111.331 111.286H166.56V166.515H111.331V111.286Z" fill="#C8B6FF"/>
<path d="M56.0998 56.0579L111.329 56.058V111.287L56.0998 111.286V56.0579Z" fill="#C8B6FF"/>
<path d="M221.789 0.829139H277.017V56.0579H221.789V0.829139Z" fill="#C8B6FF"/>
<path d="M221.789 111.286H277.017V166.515H221.789V111.286Z" fill="#C8B6FF"/>
<path d="M166.558 56.058H221.786V111.287H166.558V56.058Z" fill="#C8B6FF"/>
<path d="M332.246 0.829139H387.475V56.0579H332.246V0.829139Z" fill="#C8B6FF"/>
<path d="M332.246 111.286H387.475V166.515H332.246V111.286Z" fill="#C8B6FF"/>
<path d="M277.02 56.058H332.248V111.287H277.02V56.058Z" fill="#C8B6FF"/>
<path d="M442.706 0.829139H497.935V56.0579H442.706V0.829139Z" fill="#C8B6FF"/>
<path d="M442.706 111.286H497.935V166.515H442.706V111.286Z" fill="#C8B6FF"/>
<path d="M387.475 56.0579L442.704 56.058V111.287L387.475 111.286V56.0579Z" fill="#C8B6FF"/>
<path d="M553.164 0.829139H608.393V56.0579H553.164V0.829139Z" fill="#C8B6FF"/>
<path d="M553.164 111.286H608.393V166.515H553.164V111.286Z" fill="#C8B6FF"/>
<path d="M497.935 56.0579H553.164V111.286H497.935V56.0579Z" fill="#C8B6FF"/>
<path d="M663.624 0.829139H718.852V56.0579H663.624V0.829139Z" fill="#C8B6FF"/>
<path d="M663.624 111.286H718.852V166.515H663.624V111.286Z" fill="#C8B6FF"/>
<path d="M608.397 56.058H663.625V111.287H608.397V56.058Z" fill="#C8B6FF"/>
<path d="M774.083 0.829139H829.312V56.0579H774.083V0.829139Z" fill="#C8B6FF"/>
<path d="M774.083 111.286H829.312V166.515H774.083V111.286Z" fill="#C8B6FF"/>
<path d="M718.85 56.058H774.079V111.287H718.85V56.058Z" fill="#C8B6FF"/>
<path d="M884.537 0.829102H939.765V56.0578H884.537V0.829102Z" fill="#C8B6FF"/>
<path d="M884.537 111.287H939.765V166.516H884.537V111.287Z" fill="#C8B6FF"/>
<path d="M829.306 56.058H884.534V111.287H829.306V56.058Z" fill="#C8B6FF"/>
<path d="M994.994 0.829102H1050.22V56.0578H994.994V0.829102Z" fill="#C8B6FF"/>
<path d="M994.994 111.287H1050.22V166.516H994.994V111.287Z" fill="#C8B6FF"/>
<path d="M939.765 56.0578H994.994V111.287H939.765V56.0578Z" fill="#C8B6FF"/>
<path d="M1105.45 0.829102H1160.68V56.0578H1105.45V0.829102Z" fill="#C8B6FF"/>
<path d="M1105.45 111.287H1160.68V166.516H1105.45V111.287Z" fill="#C8B6FF"/>
<path d="M1050.23 56.058L1105.45 56.0578V111.287L1050.23 111.287V56.058Z" fill="#C8B6FF"/>
<path d="M1215.91 0.829102H1271.14V56.0578H1215.91V0.829102Z" fill="#C8B6FF"/>
<path d="M1215.91 111.287H1271.14V166.516H1215.91V111.287Z" fill="#C8B6FF"/>
<path d="M1160.68 56.058H1215.91V111.287H1160.68V56.058Z" fill="#C8B6FF"/>
<path d="M1326.37 0.829102H1381.6V56.0578H1326.37V0.829102Z" fill="#C8B6FF"/>
<path d="M1326.37 111.287H1381.6V166.516H1326.37V111.287Z" fill="#C8B6FF"/>
<path d="M1271.14 56.0578L1326.37 56.058V111.287L1271.14 111.287V56.0578Z" fill="#C8B6FF"/>
<path d="M1436.83 0.829102H1492.06V56.0578H1436.83V0.829102Z" fill="#C8B6FF"/>
<path d="M1436.83 111.287H1492.06V166.516H1436.83V111.287Z" fill="#C8B6FF"/>
<path d="M1381.6 56.058L1436.83 56.0578V111.287L1381.6 111.287V56.058Z" fill="#C8B6FF"/>
<path d="M1547.29 0.829102H1602.52V56.0578H1547.29V0.829102Z" fill="#C8B6FF"/>
<path d="M1547.29 111.287H1602.52V166.516H1547.29V111.287Z" fill="#C8B6FF"/>
<path d="M1492.06 56.058H1547.29V111.287H1492.06V56.058Z" fill="#C8B6FF"/>
<path d="M1657.75 0.829279H1712.98V56.058H1657.75V0.829279Z" fill="#C8B6FF"/>
<path d="M1657.75 111.287H1712.98V166.515H1657.75V111.287Z" fill="#C8B6FF"/>
<path d="M1602.52 56.0581H1657.74V111.287H1602.52V56.0581Z" fill="#C8B6FF"/>
<path d="M1768.2 0.829279H1823.43V56.058H1768.2V0.829279Z" fill="#C8B6FF"/>
<path d="M1768.2 111.287H1823.43V166.515H1768.2V111.287Z" fill="#C8B6FF"/>
<path d="M1712.97 56.0581H1768.2V111.287H1712.97V56.0581Z" fill="#C8B6FF"/>
<path d="M1878.66 0.829279H1933.89V56.058H1878.66V0.829279Z" fill="#C8B6FF"/>
<path d="M1878.66 111.287H1933.89V166.515H1878.66V111.287Z" fill="#C8B6FF"/>
<path d="M1823.44 56.0581H1878.66V111.287H1823.44V56.0581Z" fill="#C8B6FF"/>
<path d="M1989.12 0.829279H2044.35V56.058H1989.12V0.829279Z" fill="#C8B6FF"/>
<path d="M1989.12 111.287H2044.35V166.515H1989.12V111.287Z" fill="#C8B6FF"/>
<path d="M1933.89 56.058L1989.12 56.0581V111.287L1933.89 111.287V56.058Z" fill="#C8B6FF"/>
<path d="M2099.58 0.829279H2154.81V56.058H2099.58V0.829279Z" fill="#C8B6FF"/>
<path d="M2099.58 111.287H2154.81V166.515H2099.58V111.287Z" fill="#C8B6FF"/>
<path d="M2044.35 56.058H2099.58V111.287H2044.35V56.058Z" fill="#C8B6FF"/>
</svg>
