<svg width="190" height="358" viewBox="0 0 190 358" fill="none" xmlns="http://www.w3.org/2000/svg">
<path d="M50.0077 356.136C50.0077 356.965 49.3361 357.636 48.5077 357.636C47.6793 357.636 47.0077 356.965 47.0077 356.136L50.0077 356.136ZM24.1758 298.969L25.5343 298.333L25.5934 298.459L25.6282 298.594L24.1758 298.969ZM14.134 206.971L12.6372 206.874L12.6427 206.789L12.6579 206.705L14.134 206.971ZM82.979 97.4118L84.451 97.1232L85.0281 100.067L83.5562 100.356L82.979 97.4118ZM47.0077 356.136C47.0077 352.878 45.7667 348.463 43.7269 343.356C41.7036 338.29 38.9654 332.712 36.1126 327.179C33.2829 321.69 30.2954 316.162 27.8813 311.391C25.4717 306.628 23.5062 302.379 22.7233 299.344L25.6282 298.594C26.3175 301.266 28.1296 305.236 30.5582 310.036C32.9824 314.828 35.894 320.208 38.7791 325.804C41.6413 331.355 44.434 337.038 46.5129 342.243C48.5753 347.407 50.0077 352.272 50.0077 356.136L47.0077 356.136ZM22.8172 299.605C6.36208 264.453 10.5452 239.001 12.6372 206.874L15.6308 207.069C13.5257 239.398 9.46775 264.012 25.5343 298.333L22.8172 299.605ZM12.6579 206.705C16.2632 186.732 21.2879 161.928 31.6295 140.895C41.9858 119.833 57.7791 102.352 82.979 97.4118L83.5562 100.356C59.6098 105.05 44.4425 121.636 34.3216 142.219C24.186 162.833 19.2171 187.255 15.6101 207.238L12.6579 206.705Z" fill="#B2F477"/>
<path d="M54.4069 58.2132C46.2573 51.1825 52.7473 42.9119 53.5459 41.5288C60.4608 29.5517 65.3348 27.4599 73.5919 23.6303C85.4629 18.1247 94.7369 20.4577 106.399 25.4912C114.955 29.1841 123.508 33.3493 125.207 43.3828C126.534 51.2238 125.243 58.6624 122.078 65.9134C121 68.3847 117.645 73.3531 115.748 76.0173C120.782 71.4283 133.017 78.0106 137.799 78.2271C143.203 78.4717 150.38 80.2425 155.003 83.1364C160.429 86.5326 161.826 96.4502 163.384 102.265C165.948 111.833 161.275 123.13 156.007 130.994C151.21 138.155 138.832 138.852 131.058 136.405C128.084 135.469 121.883 128.041 123.811 130.491C126.017 133.294 125.638 138.82 124.6 141.887C121.734 150.358 114.632 162.135 104.902 163.726C90.2922 166.116 79.4527 160.417 69.3706 150.245C60.9351 141.734 49.9814 132.366 56.3714 119.296C57.7265 116.525 59.5542 114.749 61.2887 112.423C62.0208 111.441 57.9981 112.889 55.8774 113.094C51.4007 113.528 46.8857 111.14 43.1305 108.972C37.2202 105.56 29.9722 102.585 25.4887 97.2796C21.8934 93.0254 23.5801 88.5673 23.4752 83.558C23.3403 77.1208 22.5657 70.6865 27.8225 65.9734C33.7962 60.6177 39.8841 54.4841 48.631 55.939C50.8619 56.3101 52.4753 57.098 54.4069 58.2132Z" fill="#FFA3E8" stroke="#FF39FC" stroke-width="2" stroke-linecap="round"/>
<path d="M75.2305 94.5806C75.0881 97.9765 77.0316 100.886 79.2465 103.312C83.9573 107.808 86.6222 106.15 87.9865 106.938C90.3727 108.315 92.5281 109.483 95.267 109.878C99.6791 110.514 103.598 107.731 105.324 103.806C107.335 99.2313 107.873 94.761 105.524 90.2665C103.756 86.8828 102.192 84.3891 98.458 82.9902C92.2069 80.6483 84.6578 80.7099 79.237 84.9754C76.2804 87.3019 75.3817 90.9779 75.2305 94.5806Z" fill="#FFDF5F" stroke="#FFD322" stroke-width="2" stroke-linecap="round"/>
</svg>
