<svg width="170" height="259" viewBox="0 0 170 259" fill="none" xmlns="http://www.w3.org/2000/svg">
<path d="M78.1505 257.136L78.1505 258.636L81.1505 258.636L81.1505 257.136L78.1505 257.136ZM103.982 215.324L102.719 214.515L102.626 214.661L102.568 214.825L103.982 215.324ZM114.024 148.036L115.518 147.903L115.508 147.789L115.481 147.677L114.024 148.036ZM45.1035 67.4957C44.2835 67.3781 43.5234 67.9475 43.4058 68.7676C43.2882 69.5876 43.8577 70.3477 44.6777 70.4653L45.1035 67.4957ZM81.1505 257.136C81.1505 254.942 82.3128 251.84 84.3548 248.101C86.3628 244.423 89.0869 240.363 91.9383 236.318C94.7557 232.321 97.7601 228.254 100.172 224.767C102.571 221.299 104.583 218.131 105.397 215.823L102.568 214.825C101.91 216.691 100.144 219.534 97.7048 223.06C95.2784 226.568 92.3839 230.479 89.4863 234.589C86.6229 238.652 83.816 242.828 81.7218 246.663C79.6617 250.435 78.1505 254.121 78.1505 257.136L81.1505 257.136ZM105.246 216.132C121.831 190.219 117.606 171.357 115.518 147.903L112.53 148.169C114.639 171.859 118.656 189.616 102.719 214.515L105.246 216.132ZM115.481 147.677C111.873 133.059 106.827 114.825 96.4275 99.3552C85.9841 83.8204 70.1503 71.0871 45.1035 67.4957L44.6777 70.4653C68.7771 73.9209 83.9041 86.1036 93.9378 101.029C104.015 116.019 108.963 133.79 112.568 148.396L115.481 147.677Z" fill="#B2F477"/>
<path d="M94.7241 19.2065C96.7513 8.50007 110.434 9.20469 112.521 9.08528C130.59 8.05125 136.322 10.9035 146.348 15.5744C160.763 22.2896 164.707 31.2768 167.351 43.7628C169.291 52.9232 170.707 62.3468 160.835 69.4105C153.12 74.9306 144.008 78.0577 133.787 79.5285C130.354 80.0225 122.693 80.0561 118.383 79.9924C127.333 81.472 132.296 93.5081 135.401 97.5641C138.929 102.172 137.872 111.021 137.929 116.477C137.996 122.881 128.04 129.63 122.722 134.197C113.971 141.714 98.2271 144.219 85.8514 144.297C74.5822 144.367 65.115 134.52 62.3506 126.71C61.293 123.721 65.1285 114.403 63.781 117.38C62.2392 120.785 55.8786 123.587 51.7666 124.459C40.4091 126.865 22.4297 127.631 13.8372 120.48C0.934431 109.742 -0.397895 97.5613 3.73617 83.4847C7.19509 71.707 9.82972 57.3628 28.735 55.2783C32.7441 54.8363 35.9869 55.3469 39.7714 55.4699C41.3688 55.5218 36.9452 53.0105 35.2281 51.3722C31.6035 47.9137 31.0643 42.8322 30.8166 38.5031C30.4266 31.6896 28.6143 24.0162 31.3149 17.3154C33.4804 11.9423 39.5827 10.8235 45.0337 7.91172C52.0387 4.16995 58.5908 -0.0993115 67.4832 1.59144C77.5881 3.51272 88.6312 5.08987 93.1734 13.146C94.3318 15.2008 94.5967 16.9797 94.7241 19.2065Z" fill="#FFA3A3"/>
<path d="M94.7241 19.2065C96.7513 8.50007 110.434 9.20469 112.521 9.08528C130.59 8.05125 136.322 10.9035 146.348 15.5744C160.763 22.2896 164.707 31.2768 167.351 43.7628C169.291 52.9232 170.707 62.3468 160.835 69.4105C153.12 74.9306 144.008 78.0577 133.787 79.5285C128.075 80.3504 110.663 79.8978 116.443 79.8432C126.629 79.747 132.079 93.224 135.401 97.5641C138.929 102.172 137.872 111.021 137.929 116.477C137.996 122.881 128.04 129.63 122.722 134.197C113.971 141.714 98.2271 144.219 85.8514 144.297C74.5822 144.367 65.115 134.52 62.3506 126.71C61.293 123.721 65.1285 114.403 63.781 117.38C62.2392 120.785 55.8786 123.587 51.7666 124.459C40.4091 126.865 22.4297 127.631 13.8372 120.48C0.934426 109.742 -0.39789 97.5613 3.73617 83.4847C7.19508 71.707 9.82973 57.3628 28.735 55.2783C32.7441 54.8363 35.9869 55.3469 39.7714 55.4699C41.3688 55.5218 36.9452 53.0105 35.2281 51.3722C31.6035 47.9137 31.0643 42.8322 30.8166 38.5031C30.4266 31.6896 28.6143 24.0162 31.3149 17.3154C33.4804 11.9423 39.5827 10.8235 45.0337 7.91172C52.0387 4.16995 58.5908 -0.0993116 67.4832 1.59144C77.5881 3.51272 88.6312 5.08987 93.1734 13.146C94.3318 15.2008 94.5967 16.9797 94.7241 19.2065Z" stroke="#FF3939" stroke-width="2" stroke-linecap="round"/>
<path d="M70.6344 80.1067C72.2089 83.1189 75.3466 84.6664 78.4781 85.6605C84.8058 87.1987 86.2844 84.4301 87.8598 84.4301C90.6151 84.4301 93.0659 84.3641 95.6352 83.3364C99.774 81.6809 101.777 77.3116 101.309 73.049C100.763 68.0822 98.994 63.9415 94.7124 61.2237C91.4891 59.1776 88.8881 57.7997 84.9547 58.4553C78.3701 59.5527 71.8633 63.3806 69.3014 69.7851C67.9042 73.2782 68.9639 76.9111 70.6344 80.1067Z" fill="#FFDF5F" stroke="#FFD322" stroke-width="2" stroke-linecap="round"/>
</svg>
