<svg width="120" height="102" viewBox="0 0 120 102" fill="none" xmlns="http://www.w3.org/2000/svg">
<path d="M49.5354 77.1091C50.0949 82.9438 49.3316 105.275 50.5468 94.9899C51.762 84.7049 51.7623 81.0131 54.4481 75.4836C56.6144 71.0234 56.534 67.8008 61.0224 64.7551C68.2104 59.8776 77.0936 61.179 85.3692 61.179C91.1768 61.179 98.2408 62.3516 103.214 58.7226C108.137 55.1301 114.89 50.7225 115.532 43.9845C116.131 37.6891 115.483 31.0305 114.123 24.9117C112.59 18.0144 104.145 17.6505 98.6624 15.1585C96.4083 14.1339 92.214 13.6701 89.9207 14.7973C84.6847 17.3709 80.2538 19.4626 74.6407 20.8659C67.6281 22.619 68.2908 34.043 64.2012 38.1326C63.9708 38.3631 62.691 34.0289 62.3951 33.0754C61.2099 29.2566 60.7469 25.2966 58.9996 21.5522C55.084 13.1618 49.9974 8.40474 41.5161 4.97185C37.3587 3.28909 33.6156 4.0094 29.6678 5.98329C23.6 9.01721 17.6368 12.0474 11.5342 15.014C-1.15374 21.1817 3.88932 43.2425 13.7377 49.728C18.7521 53.0302 26.0772 55.549 31.9074 56.9526C37.2948 58.2496 40.924 58.7085 44.8394 62.6239C48.7891 66.5736 49.0132 71.664 49.5354 77.1091Z" fill="#FFBCBD" stroke="#FF7E67" stroke-width="7" stroke-linecap="round"/>
</svg>
