<svg width="280" height="72" viewBox="0 0 280 72" fill="none" xmlns="http://www.w3.org/2000/svg">
<path d="M214.136 71.2441C213.655 71.2441 213.267 71.0223 212.971 70.5786C212.675 70.135 212.527 69.5619 212.527 68.8595C212.527 67.2697 213.193 66.4749 214.524 66.4749C216.15 66.4749 217.592 65.8094 218.849 64.4784C220.143 63.1105 221.16 61.262 221.899 58.9328C222.676 56.6036 223.064 54.0157 223.064 51.1689C223.064 50.5034 223.027 49.8934 222.953 49.3389C222.879 48.7843 222.787 48.3222 222.676 47.9525C222.343 47.6197 221.973 47.0836 221.567 46.3442C221.197 45.6048 220.864 44.8284 220.569 44.0151C220.31 43.1647 220.18 42.4808 220.18 41.9632C220.624 41.2607 221.326 40.7246 222.288 40.3549C223.286 39.9483 224.377 39.8373 225.56 40.0222C226.262 41.3162 226.835 42.9429 227.279 44.9024C228.388 44.8654 229.885 44.6251 231.771 44.1814C232.954 43.9226 233.897 43.7563 234.599 43.6823C235.338 43.5714 235.967 43.5159 236.484 43.5159C238.481 43.5159 240.052 44.2738 241.198 45.7897C242.344 47.2685 242.917 49.2834 242.917 51.8344V60.7629C242.917 62.7963 243.176 64.2566 243.694 65.1439C244.248 66.0312 245.117 66.4749 246.3 66.4749C246.707 66.4749 247.151 66.3824 247.631 66.1976C248.112 66.0127 248.611 65.7355 249.129 65.3657C249.757 65.6615 250.275 66.1791 250.681 66.9185C251.088 67.621 251.273 68.3234 251.236 69.0259C250.644 69.6913 249.886 70.2274 248.962 70.6341C248.038 71.0408 247.04 71.2441 245.968 71.2441H245.912C240.551 71.2441 237.871 67.9537 237.871 61.3729V52.7772C237.871 51.1135 237.686 49.9489 237.316 49.2834C236.947 48.6179 236.281 48.2852 235.32 48.2852C234.987 48.2852 234.617 48.3222 234.211 48.3961C233.804 48.47 233.083 48.6179 232.048 48.8398C230.236 49.2095 228.868 49.4313 227.944 49.5052C227.981 50.0968 228 50.6883 228 51.2798C228 55.2727 227.427 58.7664 226.281 61.7611C225.134 64.7557 223.508 67.0849 221.4 68.7486C219.33 70.4123 216.908 71.2441 214.136 71.2441Z" fill="white"/>
<path d="M179.16 66.475C180.418 66.475 181.638 65.865 182.821 64.645C184.041 63.388 185.057 61.7058 185.871 59.5985C185.834 59.0809 185.815 58.5633 185.815 58.0457C185.815 55.2359 186.37 52.7404 187.479 50.5591C188.588 48.3778 190.085 46.6586 191.971 45.4016C193.893 44.1446 196.075 43.5161 198.515 43.5161C199.809 43.5161 201.084 43.7749 202.341 44.2925C203.598 44.7731 204.652 45.4386 205.502 46.2889V44.0152C205.835 43.9043 206.223 43.8119 206.667 43.7379C207.11 43.664 207.573 43.627 208.053 43.627C208.941 43.627 209.772 43.7564 210.549 44.0152V60.2639C210.549 62.2234 210.845 63.7577 211.436 64.8668C212.065 65.939 213.1 66.475 214.542 66.475C215.17 66.475 215.595 66.7338 215.817 67.2514C216.039 67.769 216.15 68.3236 216.15 68.9151C216.15 69.5067 215.983 70.0427 215.651 70.5234C215.355 71.004 214.856 71.2443 214.153 71.2443C210.53 71.2443 208.109 69.6176 206.889 66.3641C205.817 67.8799 204.467 69.0815 202.84 69.9688C201.251 70.8191 199.476 71.2443 197.517 71.2443C195.372 71.2443 193.468 70.7821 191.805 69.8579C190.178 68.8966 188.847 67.5842 187.812 65.9205C185.519 69.4697 182.506 71.2443 178.772 71.2443C178.292 71.2443 177.903 71.0225 177.608 70.5788C177.312 70.1352 177.164 69.5621 177.164 68.8597C177.164 67.2699 177.83 66.475 179.16 66.475ZM190.973 58.0457C190.973 60.6706 191.564 62.741 192.747 64.2568C193.967 65.7356 195.631 66.475 197.738 66.475C200.068 66.475 201.935 65.6802 203.339 64.0904C204.781 62.5007 205.502 60.4118 205.502 57.8238V51.6127C204.763 50.6145 203.82 49.8197 202.674 49.2281C201.528 48.5996 200.345 48.2854 199.125 48.2854C197.535 48.2854 196.13 48.7105 194.91 49.5609C193.69 50.4112 192.729 51.5758 192.026 53.0546C191.324 54.4965 190.973 56.1602 190.973 58.0457Z" fill="white"/>
<path d="M134.145 71.2443C133.665 71.2443 133.277 71.0225 132.981 70.5788C132.685 70.1352 132.537 69.5621 132.537 68.8597C132.537 67.2699 133.203 66.475 134.534 66.475C135.717 66.475 136.77 65.8835 137.695 64.7004C138.656 63.4804 139.488 61.4655 140.19 58.6557L141.854 52.1673C143.407 46.3998 146.364 43.5161 150.727 43.5161C152.39 43.5161 153.795 44.0152 154.941 45.0134C156.088 45.9747 156.882 47.2871 157.326 48.9508C158.361 47.2132 159.692 45.8823 161.319 44.958C162.946 43.9967 164.757 43.5161 166.754 43.5161C169.637 43.5161 171.856 44.4589 173.408 46.3444C174.998 48.2299 175.793 50.8733 175.793 54.2746V60.763C175.793 62.7964 176.052 64.2568 176.569 65.1441C177.124 66.0314 177.993 66.475 179.176 66.475C179.693 66.475 180.082 66.6969 180.34 67.1405C180.636 67.5842 180.784 68.1757 180.784 68.9151C180.784 69.5067 180.618 70.0427 180.285 70.5234C179.989 71.004 179.49 71.2443 178.788 71.2443C173.427 71.2443 170.747 67.9539 170.747 61.3731V54.2746C170.747 50.2818 169.175 48.2854 166.033 48.2854C164.406 48.2854 162.964 48.9323 161.707 50.2263C160.487 51.5203 159.526 53.3134 158.823 55.6056C158.158 57.8978 157.825 60.5597 157.825 63.5913V70.4679C157.455 70.5788 157.049 70.6712 156.605 70.7452C156.162 70.8191 155.736 70.8561 155.33 70.8561C154.442 70.8561 153.611 70.7267 152.834 70.4679V52.7773C152.834 51.3355 152.649 50.2263 152.28 49.4499C151.91 48.6736 151.244 48.2854 150.283 48.2854C149.507 48.2854 148.841 48.6366 148.287 49.339C147.732 50.0415 147.252 51.1691 146.845 52.7219L144.793 60.7076C143.832 64.3677 142.501 67.0481 140.8 68.7487C139.099 70.4124 136.881 71.2443 134.145 71.2443Z" fill="white"/>
<path d="M111.657 71.2442C111.103 71.2442 110.678 71.0224 110.382 70.5787C110.049 70.1351 109.883 69.562 109.883 68.8596C109.883 68.1202 110.068 67.5471 110.437 67.1404C110.807 66.7337 111.288 66.5304 111.879 66.5304C114.504 66.5304 116.833 65.791 118.867 64.3122C120.937 62.7963 122.564 60.726 123.747 58.101C124.93 55.4761 125.522 52.4815 125.522 49.1171V44.2924C125.854 44.1815 126.242 44.0891 126.686 44.0151C127.13 43.9412 127.592 43.9042 128.072 43.9042C128.923 43.9042 129.755 44.0336 130.568 44.2924V60.2638C130.568 62.2233 130.864 63.7576 131.455 64.8667C132.084 65.9389 133.119 66.475 134.561 66.475C135.189 66.475 135.615 66.7338 135.836 67.2513C136.058 67.7689 136.169 68.3235 136.169 68.915C136.169 69.5066 136.003 70.0426 135.67 70.5233C135.374 71.0039 134.875 71.2442 134.173 71.2442C129.588 71.2442 126.926 68.6562 126.187 63.4803C124.56 65.9204 122.49 67.8244 119.976 69.1923C117.499 70.5602 114.726 71.2442 111.657 71.2442ZM128.128 36.3067C127.093 36.3067 126.205 35.937 125.466 35.1976C124.727 34.4582 124.357 33.5709 124.357 32.5357C124.357 31.4266 124.708 30.5208 125.411 29.8183C126.15 29.1159 127.056 28.7646 128.128 28.7646C129.237 28.7646 130.143 29.1159 130.845 29.8183C131.548 30.5208 131.899 31.4266 131.899 32.5357C131.899 33.6078 131.529 34.5136 130.79 35.253C130.087 35.9555 129.2 36.3067 128.128 36.3067Z" fill="white"/>
<path d="M111.498 71.2444C109.021 71.2444 107.024 70.6714 105.508 69.5253C104.029 68.3422 102.994 66.6785 102.403 64.5342C102.218 63.7948 102.052 62.9814 101.904 62.0941C101.756 61.1699 101.645 59.9868 101.571 58.5449C101.497 57.0661 101.442 55.1621 101.405 52.8329C100.184 53.1287 98.909 53.369 97.578 53.5538C96.2471 53.7387 95.0455 53.8311 93.9734 53.8311C92.6794 53.8311 91.7366 53.6648 91.1451 53.332C90.5536 52.9993 90.2578 52.3523 90.2578 51.3911C90.2578 50.7256 90.3872 50.245 90.646 49.9492C90.9048 49.6165 91.2006 49.4501 91.5333 49.4501H93.0306C94.3986 49.4501 95.785 49.3392 97.1899 49.1173C98.5578 48.8955 99.9627 48.5813 101.405 48.1746V40.6325C101.405 37.3421 101.442 34.5508 101.515 32.2586C101.589 29.9664 101.737 28.0439 101.959 26.4912C102.181 24.9384 102.458 23.6259 102.791 22.5538C103.161 21.4446 103.623 20.4464 104.177 19.5591C104.991 18.2282 105.989 17.2669 107.172 16.6754C108.392 16.0839 109.723 15.7881 111.165 15.7881C114.049 15.7881 116.267 17.0636 117.82 19.6146C119.372 22.1656 120.149 25.6778 120.149 30.1513C120.149 33.6265 119.539 36.7876 118.319 39.6343C117.136 42.4811 115.509 44.9396 113.439 47.01C111.368 49.0434 109.002 50.6147 106.34 51.7238C106.34 54.9033 106.396 57.3249 106.507 58.9886C106.654 60.6523 106.858 61.9832 107.117 62.9814C107.412 64.0166 107.93 64.8669 108.669 65.5324C109.446 66.1979 110.499 66.5306 111.83 66.5306C112.348 66.5306 112.755 66.7525 113.05 67.1961C113.383 67.6028 113.549 68.1758 113.549 68.9153C113.549 70.468 112.866 71.2444 111.498 71.2444ZM106.34 40.9653V46.7327C108.928 45.4018 111.054 43.2759 112.718 40.3552C114.381 37.3976 115.213 33.9593 115.213 30.0404C115.213 26.9718 114.843 24.6241 114.104 22.9974C113.402 21.3707 112.422 20.5573 111.165 20.5573C109.723 20.5573 108.632 21.4077 107.893 23.1083C107.523 23.9956 107.209 25.1232 106.95 26.4912C106.728 27.8221 106.562 29.6337 106.451 31.9259C106.377 34.2181 106.34 37.2312 106.34 40.9653Z" fill="white"/>
<path d="M82.9358 71.2443C80.4217 71.2443 78.1665 70.6527 76.1701 69.4697C74.2106 68.2496 72.6579 66.586 71.5118 64.4786C70.4026 62.3713 69.8481 59.9866 69.8481 57.3247C69.8481 55.3653 70.1808 53.5167 70.8463 51.7791C67.334 52.5925 63.563 52.9991 59.5332 52.9991C58.9786 52.9991 58.535 52.7773 58.2022 52.3337C57.8695 51.8531 57.7031 51.2615 57.7031 50.5591C57.7031 49.0433 58.3131 48.2854 59.5332 48.2854C65.7443 48.2854 71.4378 47.2317 76.6137 45.1243C78.5362 44.0522 80.6436 43.5161 82.9358 43.5161C85.4128 43.5161 87.6311 44.1261 89.5905 45.3462C91.55 46.5292 93.0843 48.156 94.1934 50.2263C95.3395 52.2967 95.9125 54.6628 95.9125 57.3247C95.9125 59.9866 95.3395 62.3713 94.1934 64.4786C93.0843 66.586 91.55 68.2496 89.5905 69.4697C87.668 70.6527 85.4498 71.2443 82.9358 71.2443ZM82.8803 66.475C85.2464 66.475 87.132 65.6432 88.5368 63.9795C89.9787 62.3158 90.6996 60.0976 90.6996 57.3247C90.6996 55.9568 90.4963 54.6998 90.0896 53.5537C87.8714 53.4798 85.8565 53.0361 84.0449 52.2228C82.2703 51.4094 80.8654 50.3003 79.8302 48.8954C78.3514 49.5239 77.1868 50.596 76.3365 52.1118C75.4861 53.5907 75.061 55.3653 75.061 57.4357C75.061 60.1345 75.7634 62.3158 77.1683 63.9795C78.6102 65.6432 80.5142 66.475 82.8803 66.475Z" fill="white"/>
<path d="M50.6209 71.2443C48.1069 71.2443 45.8517 70.6527 43.8552 69.4697C41.8958 68.2496 40.343 66.586 39.1969 64.4786C38.0878 62.3713 37.5332 59.9866 37.5332 57.3247C37.5332 54.6628 38.1062 52.2967 39.2523 50.2263C40.3984 48.156 41.9512 46.5292 43.9107 45.3462C45.9071 44.1261 48.1438 43.5161 50.6209 43.5161C53.0979 43.5161 55.3162 44.1261 57.2757 45.3462C59.2351 46.5292 60.7694 48.156 61.8785 50.2263C63.0246 52.2967 63.5977 54.6628 63.5977 57.3247C63.5977 59.9866 63.0246 62.3713 61.8785 64.4786C60.7694 66.586 59.2351 68.2496 57.2757 69.4697C55.3532 70.6527 53.1349 71.2443 50.6209 71.2443ZM50.5654 66.475C52.9316 66.475 54.8171 65.6432 56.222 63.9795C57.6638 62.3158 58.3848 60.0976 58.3848 57.3247C58.3848 55.9568 58.1814 54.6998 57.7748 53.5537C55.5565 53.4798 53.5416 53.0361 51.73 52.2228C49.9554 51.4094 48.5505 50.3003 47.5153 48.8954C46.0365 49.5239 44.8719 50.596 44.0216 52.1118C43.1713 53.5907 42.7461 55.3653 42.7461 57.4357C42.7461 60.1345 43.4485 62.3158 44.8534 63.9795C46.2953 65.6432 48.1993 66.475 50.5654 66.475Z" fill="white"/>
<path d="M19.0834 71.2446C15.3124 71.2446 12.059 70.4128 9.32313 68.7491C6.62425 67.0854 4.55388 64.7562 3.11202 61.7616C1.67015 58.7669 0.949219 55.2547 0.949219 51.2249C0.949219 46.9362 1.72561 43.1837 3.27838 39.9672C4.86813 36.7138 7.0679 34.1813 9.87769 32.3697C12.6875 30.5581 15.9039 29.6523 19.5271 29.6523C22.4108 29.6523 25.0358 30.2439 27.4019 31.4269C29.805 32.573 31.746 34.1813 33.2248 36.2516C33.04 36.9171 32.5593 37.6011 31.7829 38.3035C31.0435 39.006 30.3041 39.4681 29.5647 39.6899C28.2337 37.9523 26.7179 36.6768 25.0173 35.8635C23.3166 35.0501 21.4865 34.6434 19.5271 34.6434C16.9022 34.6434 14.5915 35.3274 12.595 36.6953C10.5986 38.0632 9.04584 39.9672 7.93672 42.4073C6.82759 44.8474 6.27303 47.6941 6.27303 50.9476C6.27303 54.0162 6.77213 56.6965 7.77035 58.9887C8.80553 61.2809 10.3029 63.074 12.2623 64.368C14.2587 65.625 16.6803 66.2535 19.5271 66.2535C22.0041 66.2535 24.1485 65.7544 25.96 64.7562C27.7716 63.758 29.4168 62.3531 30.8956 60.5415C31.5981 60.7633 32.319 61.17 33.0584 61.7616C33.7979 62.3531 34.3154 62.9446 34.6112 63.5362C32.9106 66.0502 30.7108 67.9727 28.0119 69.3036C25.35 70.5976 22.3738 71.2446 19.0834 71.2446Z" fill="white"/>
<path d="M249.375 67.9266C264.884 55.3741 262.898 19.6495 260.772 2.35645" stroke="white" stroke-width="4.23458" stroke-linecap="round"/>
<path d="M243.898 4.76709C243.898 4.76709 244.824 30.85 261.516 30.1723C279.134 29.4572 277.649 4.76709 277.649 4.76709" stroke="white" stroke-width="4.23458" stroke-linecap="round"/>
</svg>