<svg width="386" height="182" viewBox="0 0 386 182" fill="none" xmlns="http://www.w3.org/2000/svg">
<path d="M342.336 65.7214C348.554 84.0643 329.993 92.9342 321.22 107.78C319.437 111.348 335.758 112.914 339.134 114.79C342.602 116.717 346.377 115.872 350.039 117.906C354.865 120.587 360.512 124.205 365.616 126.473C375.093 130.685 388.662 149.787 383.184 160.743C376.181 174.749 363.768 180.994 348.048 180.994C332.999 180.994 317.927 176.321 302.701 176.321C293.405 176.321 283.981 174.763 274.488 174.763C260.949 174.763 247.584 173.205 233.987 173.205C217.857 173.205 201.518 172.907 185.697 169.311C146.518 160.407 105.691 159.626 65.5783 159.186C54.0801 159.059 28.4252 159.367 20.577 148.628C13.0876 138.379 1.88416 121.876 1.88416 108.559C1.88416 81.9973 24.9207 75.0679 47.1451 75.0679C59.6974 75.0679 75.358 73.8342 87.5598 76.9718C89.8413 77.5584 105.239 88.1334 104.349 85.972C95.2632 63.9072 87.1085 42.5826 99.6755 19.1624C117.153 -13.41 162.306 7.33164 186.216 20.374C199.31 27.5158 213.501 32.7116 220.66 47.0286C221.759 49.2268 227.756 68.9463 227.756 58.7116C227.756 47.1898 239.611 39.521 246.449 31.105C258.501 16.2715 274.104 13.3012 291.97 19.6816C312.601 27.0501 334.95 43.9313 342.336 65.7214Z" fill="white" stroke="black" stroke-width="2" stroke-linecap="round"/>
</svg>
