<svg width="47" height="44" viewBox="0 0 47 44" fill="none" xmlns="http://www.w3.org/2000/svg">
<path d="M6.62418 27.5615C5.91923 28.0575 5.14739 28.4301 4.44691 28.923C3.99377 29.1496 2.65238 30.3699 2.65238 30.3699C1.93708 31.2972 2.45682 30.5951 1.93708 31.3458C1.4054 32.1138 1.14648 33.678 1.14648 34.6831C1.14648 36.1714 1.38839 37.4221 1.93708 38.8243C2.36864 39.9272 3.05524 41.3237 4.2524 41.7922C4.97556 42.0752 5.69513 42.4405 6.45477 42.6142C7.30407 42.8083 8.35664 42.6393 9.21558 42.6393C10.4577 42.6393 11.7007 42.6528 12.9427 42.6393C14.7983 42.6191 16.5999 42.2108 18.4455 42.0808C22.3195 41.808 26.2175 41.3317 30.0534 40.713C33.3195 40.1862 36.8513 39.2219 39.7602 37.5945C41.5288 36.6051 43.8213 35.4648 44.8363 33.6039C45.5105 32.3679 45.5328 30.9265 45.5328 29.5631C45.5328 28.5976 45.5754 27.6603 45.3571 26.7144C45.0534 25.3984 44.0283 24.5396 42.9916 23.7716C42.3724 23.3129 41.8002 22.7593 41.0716 22.4791C39.5824 21.9063 37.6596 21.8771 36.0833 21.8579C31.0284 21.7962 26.0469 21.934 21.018 22.4665C18.331 22.751 15.4225 23.3737 12.9176 24.4305C10.7306 25.3531 8.5724 26.1905 6.62418 27.5615Z" fill="#FFDF5F" stroke="black" stroke-width="2" stroke-linecap="round"/>
<path d="M14.2871 23.6221C14.2871 24.08 14.495 24.6195 14.606 25.0632C14.9234 26.3329 15.3831 27.6102 15.5784 28.9021C15.8117 30.4454 16.0187 31.9555 16.0089 33.5189C16.0048 34.1682 15.8914 34.7931 15.8112 35.4351C15.7511 35.9153 15.8088 36.3987 15.7665 36.8795C15.6842 37.8164 15.4349 38.7273 15.4349 39.6661C15.4349 40.0764 15.4349 40.4866 15.4349 40.8969" stroke="black" stroke-width="3" stroke-linecap="round"/>
<path d="M29.4953 21.728C30.7489 22.8562 30.9444 24.9839 31.0577 26.5489C31.1236 27.4599 31.3319 28.3396 31.3319 29.259C31.3319 30.4181 31.0704 31.4642 30.7866 32.5782C30.4562 33.8754 30.2589 35.1959 30.0087 36.5095C29.852 37.3322 29.6739 38.127 29.2403 38.8498C29.0665 39.1395 28.8066 39.5118 28.8066 39.8637" stroke="black" stroke-width="3" stroke-linecap="round"/>
<path d="M32.6926 22.3311C33.1082 24.7952 33.5313 27.1138 33.4494 29.6134C33.4074 30.8944 32.9497 32.0031 32.6502 33.2281C32.4618 33.9989 32.25 34.8537 32.2163 35.6467C32.1972 36.095 31.9503 36.4815 31.9305 36.9275C31.8986 37.6438 31.3606 38.353 31.1631 39.0445C31.13 39.1601 30.8884 39.2944 30.8085 39.4043C30.6722 39.5918 30.4872 39.9978 30.4062 40.2405" stroke="black" stroke-width="3" stroke-linecap="round"/>
<path d="M16.4976 23.7603C16.8819 24.7919 17.4135 25.8791 17.5984 26.978C17.726 27.7358 17.61 28.5311 17.6514 29.2961C17.7316 30.7803 17.8313 32.2274 17.8313 33.7206C17.8313 34.9801 17.8313 36.2397 17.8313 37.4993C17.8313 37.9691 17.7126 38.4882 17.5032 38.9071C17.4412 39.0309 17.4502 39.1539 17.4502 39.2882C17.4502 39.4811 17.287 39.5052 17.2597 39.6692C17.2199 39.9079 17.1147 40.2418 16.9686 40.4366C16.7282 40.7572 16.6819 41.1996 16.4023 41.4792" stroke="black" stroke-width="3" stroke-linecap="round"/>
<path d="M20.2983 21.2668C19.3599 20.6332 18.3352 20.0741 17.7883 19.0016C17.326 18.0949 17.1102 17.14 17.1102 16.1142C17.1102 15.5649 17.1039 15.0151 17.1102 14.4658C17.1187 13.7284 17.3551 13.0813 17.515 12.3753C17.8363 10.9577 18.3824 9.61907 18.8611 8.25435C19.2189 7.23442 19.6732 6.29315 20.1566 5.34512C20.4916 4.68804 20.9932 4.23679 21.4318 3.65853C21.6869 3.3222 21.9232 3.03195 22.2314 2.75246C22.5055 2.50384 22.6587 2.10658 22.9803 1.91735C23.3269 1.71341 23.5357 1.65924 23.9215 1.9119C24.1376 2.0534 24.3549 2.17709 24.5789 2.30462L24.5794 2.30489C24.8676 2.46893 25.0263 2.85692 25.3081 2.98717C25.788 3.20902 25.8032 4.03742 25.8749 4.51001C26.0719 5.80863 26.1811 7.0809 26.1228 8.40173C26.052 10.0057 25.3462 11.426 24.9941 12.9563C25.1689 12.6203 25.3384 12.2817 25.4852 11.9332C26.1928 10.2541 26.9103 8.51338 28.061 7.11904C28.9475 6.0447 30.007 5.21997 31.082 4.41722C32.2634 3.53505 34.0286 5.114 34.7306 6.08744C35.0047 6.46757 34.9634 7.26758 34.9634 7.70853C34.9634 8.72372 34.5716 9.8387 34.1841 10.7542C33.5369 12.2831 32.6146 13.7202 31.8664 15.1972C31.3147 16.2862 30.5724 17.2074 29.8726 18.1719C29.4322 18.7789 28.8162 19.2095 28.2229 19.6402C27.5834 20.1045 26.7457 20.6582 25.9963 20.8738C25.3675 21.0546 24.8711 21.2568 24.3061 21.5615L22.2314 22.2233L20.2983 21.2668Z" fill="#D3FFED"/>
<path d="M20.2983 21.2668C19.3599 20.6332 18.3352 20.0741 17.7883 19.0016C17.326 18.0949 17.1102 17.14 17.1102 16.1142C17.1102 15.5649 17.1039 15.0151 17.1102 14.4658C17.1187 13.7284 17.3551 13.0813 17.515 12.3753C17.8363 10.9577 18.3824 9.61907 18.8611 8.25435C19.2189 7.23442 19.6732 6.29315 20.1566 5.34512C20.4916 4.68804 20.9932 4.23679 21.4318 3.65853C21.6869 3.3222 21.9232 3.03195 22.2314 2.75246C22.5055 2.50384 22.6587 2.10658 22.9803 1.91735C23.3269 1.71341 23.5357 1.65924 23.9215 1.9119C24.1378 2.0535 24.3552 2.17727 24.5794 2.30489C24.8676 2.46893 25.0263 2.85692 25.3081 2.98717C25.788 3.20902 25.8032 4.03742 25.8749 4.51001C26.0719 5.80863 26.1811 7.0809 26.1228 8.40173C26.0484 10.0865 25.2734 11.5687 24.9437 13.1886C24.7408 14.1858 24.4721 15.1747 23.9873 16.0596C23.556 16.8469 22.8299 17.6862 22.5957 18.5704C22.5072 18.9047 22.3852 19.2095 22.2971 19.542C22.2577 19.6909 21.845 20.7589 21.7385 20.8738C21.7385 20.8738 22.1977 19.6057 22.2617 19.4874C22.7131 18.6527 22.9565 17.7301 23.3042 16.8456C23.6599 15.9407 23.9775 14.9878 24.3972 14.1165C24.7493 13.3857 25.1695 12.6823 25.4852 11.9332C26.1928 10.2541 26.9103 8.51338 28.061 7.11904C28.9475 6.0447 30.007 5.21997 31.082 4.41722C32.2634 3.53505 34.0286 5.114 34.7306 6.08744C35.0047 6.46757 34.9634 7.26758 34.9634 7.70853C34.9634 8.72372 34.5716 9.8387 34.1841 10.7542C33.5369 12.2831 32.6146 13.7202 31.8664 15.1972C31.3147 16.2862 30.5724 17.2074 29.8726 18.1719C29.4322 18.7789 28.8162 19.2095 28.2229 19.6402C27.5834 20.1045 26.7457 20.6582 25.9963 20.8738C25.3675 21.0546 24.8711 21.2568 24.3061 21.5615L22.2314 22.2233L20.2983 21.2668Z" stroke="black" stroke-width="2" stroke-linecap="round"/>
</svg>
