<svg width="48" height="41" viewBox="0 0 48 41" fill="none" xmlns="http://www.w3.org/2000/svg">
<path d="M7.37614 24.0634C6.67118 24.5595 5.89934 24.9321 5.19886 25.425C4.74572 25.6516 3.40433 26.8718 3.40433 26.8718C2.68903 27.7991 3.20877 27.097 2.68903 27.8478C2.15736 28.6158 1.89844 30.1799 1.89844 31.1851C1.89844 32.6734 2.14035 33.9241 2.68903 35.3263C3.12059 36.4291 3.8072 37.8257 5.00435 38.2941C5.72752 38.5771 6.44708 38.9425 7.20672 39.1161C8.05602 39.3102 9.10859 39.1412 9.96754 39.1412C11.2096 39.1412 12.4526 39.1547 13.6946 39.1412C15.5503 39.121 17.3518 38.7127 19.1974 38.5828C23.0714 38.31 26.9694 37.8336 30.8054 37.2149C34.0715 36.6881 37.6032 35.7238 40.5121 34.0965C42.2808 33.107 44.5732 31.9668 45.5883 30.1058C46.2625 28.8698 46.2848 27.4285 46.2848 26.065C46.2848 25.0995 46.3273 24.1623 46.1091 23.2163C45.8054 21.9003 44.7803 21.0415 43.7435 20.2736C43.1243 19.8149 42.5522 19.2613 41.8235 18.981C40.3344 18.4083 38.4115 18.3791 36.8352 18.3598C31.7803 18.2982 26.7988 18.436 21.77 18.9685C19.083 19.253 16.1745 19.8756 13.6695 20.9324C11.4826 21.855 9.32435 22.6925 7.37614 24.0634Z" fill="#FFDF5F" stroke="black" stroke-width="2" stroke-linecap="round"/>
<path d="M15.0391 20.124C15.0391 20.582 15.247 21.1214 15.3579 21.5652C15.6753 22.8349 16.1351 24.1122 16.3304 25.404C16.5637 26.9473 16.7706 28.4575 16.7608 30.0208C16.7567 30.6702 16.6434 31.2951 16.5631 31.9371C16.5031 32.4173 16.5608 32.9006 16.5185 33.3814C16.4361 34.3183 16.1869 35.2293 16.1869 36.1681C16.1869 36.5783 16.1869 36.9886 16.1869 37.3988" stroke="black" stroke-width="3" stroke-linecap="round"/>
<path d="M30.2473 18.23C31.5008 19.3582 31.6964 21.4858 31.8096 23.0509C31.8755 23.9618 32.0838 24.8416 32.0838 25.761C32.0838 26.92 31.8223 27.9662 31.5386 29.0801C31.2082 30.3774 31.0108 31.6978 30.7606 33.0114C30.6039 33.8342 30.4259 34.629 29.9922 35.3517C29.8184 35.6414 29.5586 36.0138 29.5586 36.3657" stroke="black" stroke-width="3" stroke-linecap="round"/>
<path d="M33.4445 18.833C33.8602 21.2972 34.2833 23.6158 34.2013 26.1153C34.1593 27.3963 33.7016 28.5051 33.4022 29.7301C33.2138 30.5008 33.002 31.3556 32.9682 32.1487C32.9491 32.5969 32.7022 32.9834 32.6824 33.4294C32.6506 34.1458 32.1126 34.8549 31.915 35.5464C31.882 35.6621 31.6404 35.7963 31.5604 35.9063C31.4241 36.0937 31.2391 36.4997 31.1582 36.7425" stroke="black" stroke-width="3" stroke-linecap="round"/>
<path d="M17.2496 20.2622C17.6338 21.2939 18.1654 22.3811 18.3504 23.48C18.4779 24.2377 18.362 25.0331 18.4033 25.7981C18.4835 27.2822 18.5832 28.7293 18.5832 30.2225C18.5832 31.4821 18.5832 32.7417 18.5832 34.0013C18.5832 34.4711 18.4646 34.9902 18.2551 35.4091C18.1932 35.5329 18.2022 35.6558 18.2022 35.7901C18.2022 35.9831 18.039 36.0072 18.0117 36.1712C17.9719 36.4098 17.8667 36.7438 17.7206 36.9386C17.4801 37.2592 17.4339 37.7016 17.1543 37.9812" stroke="black" stroke-width="3" stroke-linecap="round"/>
<path d="M19.0529 17.8022C18.1627 17.4461 17.2976 16.9223 16.4804 16.4392C15.1732 15.6665 13.8483 14.8727 12.7695 13.788C11.8974 12.9111 11.1347 11.7709 10.6763 10.6201C9.87017 8.59666 9.64103 5.77824 11.047 3.96224C12.4932 2.09416 15.1474 1.40871 17.394 1.532C20.1682 1.68424 23.0868 2.31809 25.018 4.48273C25.7968 5.35563 26.3131 6.41838 26.7517 7.49338C26.8809 7.80992 27.0035 8.13335 27.0936 8.46236C27.5015 8.13075 27.923 7.81793 28.3582 7.53082C29.575 6.72808 30.8277 5.95799 32.2188 5.49751C33.7852 4.97901 35.361 4.81285 37.0044 4.79728C38.3062 4.78494 39.7027 4.66607 40.9886 4.91336C41.8324 5.07562 42.5456 5.52872 42.9134 6.32132C43.9085 8.46568 42.0693 10.7693 40.8314 12.3576C39.1949 14.4573 37.2396 16.2035 34.7202 17.1507L34.7162 17.1522C33.5944 17.5739 32.2699 18.0718 31.0505 18.0718L19.643 18.5597L19.0529 17.8022Z" fill="#D3FFED"/>
<path d="M19.0529 17.8022C18.1627 17.4461 17.2976 16.9223 16.4804 16.4392C15.1732 15.6665 13.8483 14.8727 12.7695 13.788C11.8974 12.9111 11.1347 11.7709 10.6763 10.6201C9.87017 8.59666 9.64103 5.77824 11.047 3.96224C12.4932 2.09416 15.1474 1.40871 17.394 1.532C20.1682 1.68424 23.0868 2.31809 25.018 4.48273C25.7968 5.35563 26.3131 6.41838 26.7517 7.49338C27.0897 8.32159 27.3831 9.19705 27.1636 10.0959C26.8732 11.2855 26.1565 12.2623 25.3887 13.1889C24.8641 13.822 24.3248 14.4596 23.7561 15.0537C23.4414 15.3823 23.0613 15.7042 22.775 16.0497C22.5534 16.3171 22.2573 16.665 21.9886 16.8848C21.8109 17.0302 21.9693 16.1633 21.9811 16.1171C22.1975 15.2746 22.5404 14.4085 22.9135 13.6233C23.4763 12.439 24.0881 11.3738 24.9993 10.4179C26.0128 9.35457 27.1309 8.34045 28.3582 7.53082C29.575 6.72808 30.8277 5.95799 32.2188 5.49751C33.7852 4.97901 35.361 4.81285 37.0044 4.79728C38.3062 4.78494 39.7027 4.66607 40.9886 4.91336C41.8324 5.07562 42.5455 5.52872 42.9134 6.32132C43.9084 8.46568 42.0693 10.7693 40.8314 12.3576C39.1949 14.4573 37.2396 16.2035 34.7202 17.1507C33.5976 17.5727 32.2714 18.0718 31.0505 18.0718L19.643 18.5597L19.0529 17.8022Z" stroke="black" stroke-width="2" stroke-linecap="round"/>
</svg>
