<svg width="87" height="102" viewBox="0 0 87 102" fill="none" xmlns="http://www.w3.org/2000/svg">
<path d="M9.41007 34.4732C6.85358 36.7457 5.45328 33.6379 4.87765 31.3354C3.38158 25.3511 5.80558 19.4136 9.58439 14.8618C18.3111 4.35012 39.7793 -1.05199 50.5505 9.71924C63.3967 22.5654 40.1796 38.3298 29.9803 44.4969C25.4288 47.2489 20.5771 47.5482 17.429 52.6901C14.0716 58.1738 13.3324 62.8179 13.3324 68.9894" stroke="#C8B6FF" stroke-width="7" stroke-linecap="round"/>
<path d="M10.9798 89.3848C10.0903 89.1625 10.3787 88.5494 10.1953 87.8159" stroke="#C8B6FF" stroke-width="7" stroke-linecap="round"/>
<path d="M48.8547 52.2161C46.5164 52.6975 46.7545 50.3303 47.2101 48.7377C48.3942 44.5983 51.9315 41.8553 55.8041 40.4227C64.7474 37.1143 79.6092 41.341 82.361 51.6107C85.6428 63.8587 66.1076 65.2852 57.7904 65.4535C54.0788 65.5287 51.0417 64.0164 47.3444 66.0258C43.4013 68.1688 41.3338 70.718 39.1801 74.4483" stroke="#C8B6FF" stroke-width="7" stroke-linecap="round"/>
<path d="M30.6395 85.9555C30.1795 85.5107 30.5678 85.2407 30.7129 84.7334" stroke="#C8B6FF" stroke-width="7" stroke-linecap="round"/>
</svg>
