<svg width="41" height="33" viewBox="0 0 41 33" fill="none" xmlns="http://www.w3.org/2000/svg">
<path d="M29.293 0.776367L32.1492 3.17301L25.71 10.8469L22.8538 8.45028L29.293 0.776367Z" fill="#182028"/>
<path d="M33.4941 4.30176L36.3503 6.6984L14.3418 32.9272L11.4856 30.5306L33.4941 4.30176Z" fill="#182028"/>
<path d="M37.6426 7.7832L40.4988 10.1798L34.0596 17.8538L31.2034 15.4571L37.6426 7.7832Z" fill="#182028"/>
<path d="M32.3203 16.3936L29.9237 19.2498L22.2498 12.8106L24.6464 9.95438L32.3203 16.3936Z" fill="#182028"/>
<path d="M27.3984 30.0566L23.9827 32.9228L15.6509 22.9934L19.0667 20.1272L27.3984 30.0566Z" fill="#182028"/>
<path d="M19.9648 19.374L15.6514 22.9935L0.611759 5.06997L4.92525 1.45053L19.9648 19.374Z" fill="#182028"/>
<path d="M21.9805 17.6826L19.9651 19.3737L6.2883 3.07431L8.30366 1.38323L21.9805 17.6826Z" fill="#182028"/>
<path d="M16.2305 22.5063L14.5394 20.491L20.2877 15.6676L21.9788 17.6829L16.2305 22.5063Z" fill="#182028"/>
<path d="M2.88281 6.59814L1.19173 4.58279L4.9247 1.45045L6.61578 3.46581L2.88281 6.59814Z" fill="#182028"/>
</svg>
