<svg width="324" height="138" viewBox="0 0 324 138" fill="none" xmlns="http://www.w3.org/2000/svg">
<path d="M3.43015 106.94C0.910722 105.293 1.0407 102.223 1.00643 99.3956C0.840467 85.7034 3.89735 71.261 8.86397 58.5443C9.37989 57.2233 14.9561 41.4071 19.5361 49.944C21.3932 53.4055 22.8448 77.4953 27.0419 77.4649C30.4586 77.4401 34.2706 70.7663 36.4631 68.6691C39.0854 66.1608 36.5175 72.0044 37.5186 71.7183C38.5992 71.4096 39.5692 68.2108 41.2714 69.5683C42.5652 70.6 46.9613 83.6843 47.448 83.4069C48.9014 82.5786 49.0991 80.4689 49.5981 78.8722C51.9002 71.5053 57.5325 46.6531 58.6284 41.9692C59.1845 39.592 65.6648 11.7232 67.1505 5.65248C68.6656 -0.538651 68.7157 -0.576034 67.8932 5.69157C65.0748 27.1701 62.1706 48.5442 60.8175 70.1937C59.9757 83.6628 59.1655 107.876 60.0357 122.186C60.3304 127.034 61.3136 138.983 65.0395 135.869C67.4325 133.868 68.364 130.541 69.4569 127.62C73.6992 116.282 75.0963 106.157 75.9462 94.0009C77.0197 78.6472 76.0341 77.2937 75.5553 63.5871C75.3336 57.2425 74.0333 57.1232 79.7382 59.2088C93.5187 64.2469 106.634 69.0377 121.41 70.5847C122.945 70.7453 131.982 71.8318 134.624 68.9428C135.38 68.1153 134.274 64.7874 134.311 64.0172" stroke="black" stroke-width="1.66666" stroke-linecap="round"/>
<path d="M132.201 101.311C138.051 81.5066 143.774 61.676 149.284 41.7738C150.874 36.0309 152.226 30.2182 154.015 24.5341C155.142 20.9509 157.34 11.9558 158.862 21.4849C162.195 42.3547 161.779 64.5458 162.224 85.5962C162.364 92.2148 162.368 98.8356 162.459 105.455C162.511 109.273 162.469 113.095 162.654 116.909C162.73 118.47 162.234 120.366 163.24 121.561C164.111 122.595 192.318 103.665 195.609 101.077C204.695 93.9316 213.113 85.9157 222.27 78.7941" stroke="black" stroke-width="1.66666" stroke-linecap="round"/>
<path d="M134.312 75.979C169.85 75.0559 205.168 71.9098 240.565 68.9424" stroke="black" stroke-width="1.66666" stroke-linecap="round"/>
<path d="M282.124 108C270.33 98.4495 266.028 83.916 257.981 71.7037C255.79 68.3777 252.449 64.822 252.116 60.6093C251.592 53.9728 256.63 47.2122 260.437 42.3242C264.823 36.6914 277.446 25.523 284.238 34.1746C289.869 41.3473 292.72 56.8617 287.955 65.3689C287.339 66.4685 289.55 63.4133 290.444 62.5269C295.356 57.6571 300.928 52.9382 307.016 49.6177C310.011 47.9843 318.935 44.8012 321.133 49.6177C324.117 56.1547 318.772 66.5998 314.552 71.2928C305.35 81.5263 291.234 86.7625 278.543 90.9133C266.231 94.9404 253.476 97.7548 241 101.22" stroke="#77E2F4" stroke-width="3" stroke-linecap="round"/>
</svg>
