<svg width="69" height="14" viewBox="0 0 69 14" fill="none" xmlns="http://www.w3.org/2000/svg">
<path d="M4.3674 3.43096C-1.48973 4.9356 0.0909589 9.20756 1.61344 11.1555C2.40713 11.8046 4.96352 12.8251 8.83955 11.7145C16.3309 12.5944 33.7535 13.9104 43.5136 12.1359C53.2737 10.3613 63.8472 11.1156 67.9139 11.7145C68.1044 11.7643 68.4007 11.7014 68.7016 10.3942C69.1736 7.70782 68.92 2.57271 68.7016 1.06879C68.5469 0.00283936 67.8758 0.609001 67.1268 1.06879C66.771 4.66929 64.2316 6.29317 63.0064 6.65505C56.2895 8.21338 35.0863 5.73706 25.3243 4.3041C16.9416 2.90698 12.6069 5.28926 11.4874 6.65505C11.5546 4.95342 10.2245 1.92632 4.3674 3.43096Z" fill="#B2F477"/>
</svg>
